nColumns=19
nRows=131
DataType=double
version=3
OpenSimVersion=4.1
endheader
time	ground_force_calcn_r_vx	ground_force_calcn_r_vy	ground_force_calcn_r_vz	ground_force_calcn_r_px	ground_force_calcn_r_py	ground_force_calcn_r_pz	ground_force_calcn_r_mx	ground_force_calcn_r_my	ground_force_calcn_r_mz	ground_force_calcn_l_vx	ground_force_calcn_l_vy	ground_force_calcn_l_vz	ground_force_calcn_l_px	ground_force_calcn_l_py	ground_force_calcn_l_pz	ground_force_calcn_l_mx	ground_force_calcn_l_my	ground_force_calcn_l_mz
0.03	0	0	0	0	0	0	0	0	0	-178.7	1142.44	-183.147	0.848073	0	-0.375064	-2.39696	15.324	-2.45661
0.04	0	0	0	0	0	0	0	0	0	-152.552	1263.92	-18.3383	0.82978	0	-0.341529	-0.502731	4.1652	-0.0604335
0.05	0	0	0	0	0	0	0	0	0	-109.912	1355.02	52.733	0.806774	0	-0.326963	0.394964	-4.8692	-0.189494
0.06	0	0	0	0	0	0	0	0	0	-61.4936	1396.15	35.5265	0.778392	0	-0.325618	0.326752	-7.41859	-0.188774
0.07	0	0	0	0	0	0	0	0	0	-21.0459	1397.84	17.2757	0.746485	0	-0.329926	0.0561116	-3.72685	-0.0460597
0.08	0	0	0	0	0	0	0	0	0	13.3223	1375.39	24.9045	0.712923	0	-0.334108	0.0180946	1.86808	0.0338257
0.09	0	0	0	0	0	0	0	0	0	49.9432	1331.2	29.135	0.678713	0	-0.335489	0.171767	4.57834	0.100202
0.1	0	0	0	0	0	0	0	0	0	88.1112	1257.87	21.3811	0.643757	0	-0.334251	0.199943	2.85438	0.0485183
0.11	0	0	0	0	0	0	0	0	0	126.376	1145.67	5.95349	0.60669	0	-0.331867	-0.114813	-1.04085	-0.00540877
0.12	0	0	0	0	0	0	0	0	0	166.999	985.722	-13.4036	0.565784	0	-0.329547	-0.592501	-3.49728	0.047555
0.13	0	0	0	0	0	0	0	0	0	198.075	780.086	-26.0565	0.520005	0	-0.327563	-0.662626	-2.60964	0.0871674
0.14	0	0	0	0	0	0	0	0	0	191.985	559.262	-30.2384	0.468944	0	-0.325189	0.184846	0.538467	-0.029114
0.15	0	0	0	0	0	0	0	0	0	145.817	361.336	-29.9772	0.409864	0	-0.321975	1.38218	3.42507	-0.284151
0.16	0	0	0	0	0	0	0	0	0	94.7397	206.253	-22.1529	0.326341	0	-0.318691	1.96326	4.27411	-0.459067
0.17	0	0	0	0	0	0	0	0	0	56.4847	102.028	-9.33177	0.128377	0	-0.316944	1.67917	3.03308	-0.277414
0.18	0	0	0	0	0	0	0	0	0	28.1441	44.2643	-1.48808	-2.23423	0	-0.247398	0.86958	1.36765	-0.0459778
0.19	0	0	0	0	0	0	0	0	0	8.108	18.1148	-2.24764	-0.00277498	0	-0.000657611	3.51663e-19	7.85683e-19	-9.74852e-20
0.2	0	0	0	0	0	0	0	0	0	-1.78316	10.3885	-4.05854	-0.00277498	0	-0.000657634	1.36934e-19	-7.97765e-19	3.11668e-19
0.21	0	0	0	0	0	0	0	0	0	0	0	0	0	0	0	0	0	0
0.22	0	0	0	0	0	0	0	0	0	0	0	0	0	0	0	0	0	0
0.23	0	0	0	0	0	0	0	0	0	0	0	0	0	0	0	0	0	0
0.24	0	0	0	0	0	0	0	0	0	0	0	0	0	0	0	0	0	0
0.25	-0.216237	21.9804	-2.21734	-0.00277498	0	-0.000657813	-0	0	-0	0	0	0	0	0	0	0	0	0
0.26	-2.92474	83.3465	-4.90416	0.845495	0	-0.204852	-0.0465834	1.32749	-0.0781103	0	0	0	0	0	0	0	0	0
0.27	-8.84703	292.873	-16.4435	0.96539	0	-0.25978	-0.00712308	0.235804	-0.0132392	0	0	0	0	0	0	0	0	0
0.28	-23.9182	740.213	-19.5507	0.970277	0	-0.261982	-0.0616602	1.90824	-0.0504009	0	0	0	0	0	0	0	0	0
0.29	-71.2455	1232.39	20.0342	0.971362	0	-0.262732	-0.2715	4.69635	0.076346	0	0	0	0	0	0	0	0	0
0.3	-156.747	1398.65	81.3705	0.969849	0	-0.263025	-0.635311	5.66886	0.329803	0	0	0	0	0	0	0	0	0
0.31	-250.562	1298.03	66.8119	0.962134	0	-0.262317	-0.706326	3.6591	0.18834	0	0	0	0	0	0	0	0	0
0.32	-301.167	1235.33	-26.2168	0.94012	0	-0.25928	-0.047418	0.1945	-0.00412776	0	0	0	0	0	0	0	0	0
0.33	-279.151	1300.06	-84.5119	0.900176	0	-0.254367	0.557775	-2.59767	0.168865	0	0	0	0	0	0	0	0	0
0.34	-212.585	1414.4	-77.5205	0.853106	0	-0.249776	0.586959	-3.90523	0.214038	0	0	0	0	0	0	0	0	0
0.35	-134.683	1489.3	-75.0916	0.809969	0	-0.246964	0.38197	-4.22373	0.212964	0	0	0	0	0	0	0	0	0
0.36	-63.0579	1500.72	-95.8584	0.770783	0	-0.245893	0.182326	-4.33919	0.277166	0	0	0	0	0	0	0	0	0
0.37	1.92135	1471.02	-95.1507	0.730533	0	-0.245964	-0.00570063	-4.36449	0.282311	0	0	0	0	0	0	0	0	0
0.38	69.8284	1415.67	-66.9184	0.685586	0	-0.246773	-0.198741	-4.0292	0.190459	0	0	0	0	0	0	0	0	0
0.39	145.418	1332.38	-38.3222	0.636168	0	-0.248074	-0.366417	-3.35726	0.0965623	0	0	0	0	0	0	0	0	0
0.4	216.549	1219.65	-14.0428	0.58595	0	-0.249532	-0.487807	-2.74744	0.0316333	0	0	0	0	0	0	0	0	0
0.41	268.336	1073.59	9.78008	0.539031	0	-0.250728	-0.620354	-2.48198	-0.0226101	0	0	0	0	0	0	0	0	0
0.42	288.868	888.085	29.9017	0.496984	0	-0.251258	-0.774761	-2.3819	-0.0801983	0	0	0	0	0	0	0	0	0
0.43	266.055	668.953	42.5823	0.457879	0	-0.250625	-0.793327	-1.99469	-0.126972	0	0	0	0	0	0	0	0	0
0.44	203.925	444.29	40.5813	0.415485	0	-0.247756	-0.473147	-1.03084	-0.094157	0	0	0	0	0	0	0	0	0
0.45	131.824	252.764	22.7618	0.354338	0	-0.239284	0.211441	0.405424	0.0365092	0	0	0	0	0	0	0	0	0
0.46	73.7065	119.038	4.7136	0.225509	0	-0.210948	1.08252	1.7483	0.0692281	0	0	0	0	0	0	0	0	0
0.47	33.3962	47.0204	-0.121184	-0.163895	0	-0.0267413	1.62068	2.28185	-0.00588094	0	0	0	0	0	0	0	0	0
0.48	9.18676	20.4848	1.52127	-0.00277501	0	-0.000658999	5.31093e-19	1.18424e-18	8.79455e-20	0	0	0	0	0	0	0	0	0
0.49	-2.78695	11.6243	-0.305816	-0.00277501	0	-0.000659067	1.80019e-19	-7.50857e-19	1.97538e-20	0	0	0	0	0	0	0	0	0
0.5	0	0	0	0	0	0	0	0	0	0	0	0	0	0	0	0	0	0
0.51	0	0	0	0	0	0	0	0	0	0	0	0	0	0	0	0	0	0
0.52	0	0	0	0	0	0	0	0	0	0	0	0	0	0	0	0	0	0
0.53	0	0	0	0	0	0	0	0	0	-2.53423	18.3717	-3.66004	-0.00277505	0	-0.00065914	1.51183e-19	-1.09599e-18	2.18345e-19
0.54	0	0	0	0	0	0	0	0	0	-11.5163	66.4389	-8.90562	1.72738	0	-0.108581	-0.327233	1.88784	-0.25305
0.55	0	0	0	0	0	0	0	0	0	-30.2597	240.014	-14.1288	1.01697	0	-0.326186	0.135838	-1.07744	0.063425
0.56	0	0	0	0	0	0	0	0	0	-60.6832	637.124	-12.789	1.02537	0	-0.31916	0.29295	-3.07574	0.0617393
0.57	0	0	0	0	0	0	0	0	0	-102.021	1117.61	23.0509	1.0258	0	-0.316194	0.416507	-4.56269	-0.0941065
0.58	0	0	0	0	0	0	0	0	0	-153.519	1310.22	53.5028	1.02277	0	-0.315218	0.77653	-6.62735	-0.270628
0.59	0	0	0	0	0	0	0	0	0	-203.974	1192.25	-20.514	1.01326	0	-0.316467	1.48376	-8.67272	0.149224
0.6	0	0	0	0	0	0	0	0	0	-240.909	1066.78	-111.144	0.989988	0	-0.320192	2.03983	-9.03267	0.94108
0.61	0	0	0	0	0	0	0	0	0	-247.371	1081.84	-41.7144	0.949505	0	-0.325019	1.79915	-7.86836	0.303393
0.62	0	0	0	0	0	0	0	0	0	-206.819	1189.12	96.8216	0.900887	0	-0.328193	1.04075	-5.98388	-0.487223
0.63	0	0	0	0	0	0	0	0	0	-136.409	1284.08	105.264	0.858474	0	-0.329702	0.456423	-4.29653	-0.352212
0.64	0	0	0	0	0	0	0	0	0	-78.5505	1324.25	26.2478	0.82477	0	-0.33081	0.164499	-2.77323	-0.0549677
0.65	0	0	0	0	0	0	0	0	0	-45.6378	1333.76	14.8824	0.794447	0	-0.331663	0.0415914	-1.2155	-0.0135629
0.66	0	0	0	0	0	0	0	0	0	-16.7735	1332.75	56.9769	0.762461	0	-0.332188	-0.00047042	0.0373778	0.00159795
0.67	0	0	0	0	0	0	0	0	0	20.0502	1312.44	55.8029	0.726655	0	-0.332514	0.00775525	0.50764	0.0215841
0.68	0	0	0	0	0	0	0	0	0	61.9822	1265.45	22.0718	0.687234	0	-0.332512	0.000618761	0.0126328	0.000220341
0.69	0	0	0	0	0	0	0	0	0	108.287	1194.05	4.64304	0.645167	0	-0.331833	-0.108113	-1.19213	-0.00463559
0.7	0	0	0	0	0	0	0	0	0	161.96	1088.87	-1.66517	0.60105	0	-0.330525	-0.347223	-2.33441	0.00356991
0.71	0	0	0	0	0	0	0	0	0	215.952	935.398	-12.3836	0.555058	0	-0.329087	-0.541506	-2.34554	0.0310522
0.72	0	0	0	0	0	0	0	0	0	239.243	741.01	-24.2497	0.507315	0	-0.327822	-0.236994	-0.734043	0.0240217
0.73	0	0	0	0	0	0	0	0	0	210.256	531.51	-31.4848	0.456653	0	-0.32664	0.70386	1.7793	-0.1054
0.74	0	0	0	0	0	0	0	0	0	152.952	336.059	-29.7364	0.396457	0	-0.325178	1.75965	3.86622	-0.342105
0.75	0	0	0	0	0	0	0	0	0	99.1775	185.126	-17.8403	0.300927	0	-0.321727	2.44224	4.55872	-0.439317
0.76	0	0	0	0	0	0	0	0	0	54.6444	87.8904	-4.22678	0.0366251	0	-0.308567	2.52616	4.06309	-0.1954
0.77	0	0	0	0	0	0	0	0	0	19.8804	36.4657	-1.96629	10.0287	0	-1.92313	1.8752	3.4396	-0.185469
0.78	0	0	0	0	0	0	0	0	0	-0.353857	14.1986	-6.10041	-0.00277514	0	-0.000661121	-0	0	-0
0.79	0	0	0	0	0	0	0	0	0	0	0	0	0	0	0	0	0	0
0.8	0	0	0	0	0	0	0	0	0	0	0	0	0	0	0	0	0	0
0.81	0	0	0	0	0	0	0	0	0	0	0	0	0	0	0	0	0	0
0.82	0	0	0	0	0	0	0	0	0	0	0	0	0	0	0	0	0	0
0.83	-3.91759	15.3788	-2.56373	-0.0027751	0	-0.000662107	-5.22606e-19	2.05154e-18	-3.42001e-19	0	0	0	0	0	0	0	0	0
0.84	-3.99292	47.7719	-1.51175	1.10438	0	-0.292569	-0.208143	2.49025	-0.0788042	0	0	0	0	0	0	0	0	0
0.85	-7.32719	178.568	-12.7412	1.03506	0	-0.261463	-0.0209292	0.510058	-0.0363935	0	0	0	0	0	0	0	0	0
0.86	-20.1784	521.81	-26.5413	1.04018	0	-0.265405	-0.0388548	1.00478	-0.0511069	0	0	0	0	0	0	0	0	0
0.87	-66.2999	1021.31	-3.8322	1.03987	0	-0.266669	-0.305132	4.70039	-0.0176369	0	0	0	0	0	0	0	0	0
0.88	-156.857	1324.65	71.3503	1.03808	0	-0.267706	-0.97885	8.26633	0.445255	0	0	0	0	0	0	0	0	0
0.89	-251.975	1281.78	107.268	1.03281	0	-0.268497	-1.62827	8.28291	0.69317	0	0	0	0	0	0	0	0	0
0.9	-314.063	1170.04	31.4558	1.01739	0	-0.267558	-1.36812	5.0969	0.137028	0	0	0	0	0	0	0	0	0
0.91	-323.597	1191.03	-58.8356	0.983571	0	-0.263766	-0.448951	1.6524	-0.081627	0	0	0	0	0	0	0	0	0
0.92	-288.931	1315.14	-66.8305	0.936763	0	-0.25882	0.00108234	-0.00492649	0.000250347	0	0	0	0	0	0	0	0	0
0.93	-233.133	1432.66	-45.4658	0.891258	0	-0.254744	0.0368616	-0.226522	0.00718876	0	0	0	0	0	0	0	0	0
0.94	-166.278	1484.39	-59.761	0.851495	0	-0.252034	0.066677	-0.595237	0.0239641	0	0	0	0	0	0	0	0	0
0.95	-99.832	1479.21	-82.612	0.813603	0	-0.250207	0.113102	-1.67583	0.0935934	0	0	0	0	0	0	0	0	0
0.96	-33.1818	1446.3	-76.0599	0.773059	0	-0.248885	0.0575536	-2.50859	0.131925	0	0	0	0	0	0	0	0	0
0.97	35.5937	1396.27	-57.0591	0.727781	0	-0.248105	-0.0529429	-2.07685	0.0848711	0	0	0	0	0	0	0	0	0
0.98	105.996	1324.59	-39.709	0.678876	0	-0.248031	-0.0483538	-0.604261	0.0181147	0	0	0	0	0	0	0	0	0
0.99	174.133	1224.49	-16.4989	0.629711	0	-0.24861	0.0955444	0.67186	-0.00905273	0	0	0	0	0	0	0	0	0
1	231.801	1086.84	10.9699	0.583559	0	-0.249571	0.163944	0.768683	0.00775858	0	0	0	0	0	0	0	0	0
1.01	265.758	903.436	36.9566	0.541858	0	-0.250552	-0.0532266	-0.180942	-0.00740174	0	0	0	0	0	0	0	0	0
1.02	258.967	680.193	52.7961	0.503575	0	-0.25107	-0.476184	-1.25073	-0.0970806	0	0	0	0	0	0	0	0	0
1.03	206.38	447.557	48.6524	0.463773	0	-0.250152	-0.757072	-1.64179	-0.178473	0	0	0	0	0	0	0	0	0
1.04	133.871	249.558	27.0633	0.406411	0	-0.244524	-0.565372	-1.05395	-0.114295	0	0	0	0	0	0	0	0	0
1.05	71.5879	114.222	6.39849	0.253753	0	-0.215028	0.279768	0.446386	0.0250056	0	0	0	0	0	0	0	0	0
1.06	27.8327	43.7021	-0.379638	2.11968	0	-0.608838	1.51518	2.37908	-0.020667	0	0	0	0	0	0	0	0	0
1.07	4.78635	16.3428	1.4013	-0.00277518	0	-0.000664878	-0	-0	-0	0	0	0	0	0	0	0	0	0
1.08	0	0	0	0	0	0	0	0	0	0	0	0	0	0	0	0	0	0
1.09	0	0	0	0	0	0	0	0	0	0	0	0	0	0	0	0	0	0
1.1	0	0	0	0	0	0	0	0	0	0	0	0	0	0	0	0	0	0
1.11	0	0	0	0	0	0	0	0	0	-3.12719	10.433	-0.917326	-0.0027753	0	-0.000664485	-3.3771e-19	1.12667e-18	-9.90634e-20
1.12	0	0	0	0	0	0	0	0	0	-5.65275	13.8194	-3.15078	-0.0027753	0	-0.000664595	-0	0	-0
1.13	0	0	0	0	0	0	0	0	0	-3.81077	38.0298	-4.09313	1.14584	0	-0.32122	0.0543747	-0.542636	0.0584037
1.14	0	0	0	0	0	0	0	0	0	-1.51914	142.616	-14.1326	1.04135	0	-0.322916	0.00533626	-0.500965	0.0496431
1.15	0	0	0	0	0	0	0	0	0	-5.67583	416.225	-36.9749	1.05501	0	-0.319147	0.00219464	-0.160939	0.0142968
1.16	0	0	0	0	0	0	0	0	0	-37.5148	830.769	-46.7179	1.05548	0	-0.317659	0.00101144	-0.0223985	0.00125957
1.17	0	0	0	0	0	0	0	0	0	-110.092	1123.23	-29.8441	1.05412	0	-0.317968	0.0844673	-0.861793	0.0228978
1.18	0	0	0	0	0	0	0	0	0	-182.071	1119.11	-36.3517	1.04992	0	-0.320793	0.408956	-2.51368	0.0816508
1.19	0	0	0	0	0	0	0	0	0	-222.81	999.112	-83.202	1.03686	0	-0.326997	0.841483	-3.77333	0.314228
1.2	0	0	0	0	0	0	0	0	0	-241.997	972.709	-63.1868	1.00675	0	-0.335695	0.976271	-3.92412	0.25491
1.21	0	0	0	0	0	0	0	0	0	-234.627	1057.96	51.4574	0.961047	0	-0.342778	0.724435	-3.26657	-0.15888
1.22	0	0	0	0	0	0	0	0	0	-192.038	1175.75	115.908	0.91426	0	-0.345929	0.377296	-2.30998	-0.227723
1.23	0	0	0	0	0	0	0	0	0	-130.042	1263.71	74.4275	0.875086	0	-0.346809	0.121112	-1.17693	-0.0693162
1.24	0	0	0	0	0	0	0	0	0	-76.4278	1312	37.4623	0.840977	0	-0.346802	-0.00862846	0.148121	0.00422937
1.25	0	0	0	0	0	0	0	0	0	-32.7614	1334.74	59.7189	0.806399	0	-0.346186	-0.0272956	1.11206	0.0497556
1.26	0	0	0	0	0	0	0	0	0	12.5026	1332.52	71.3747	0.767244	0	-0.345144	0.0104035	1.1088	0.0593917
1.27	0	0	0	0	0	0	0	0	0	64.6802	1296.27	40.2072	0.721979	0	-0.343858	0.00915504	0.183478	0.00569106
1.28	0	0	0	0	0	0	0	0	0	125.513	1221.87	4.47124	0.672078	0	-0.34233	-0.10974	-1.06831	-0.00390932
1.29	0	0	0	0	0	0	0	0	0	192.132	1110.64	-16.5795	0.621564	0	-0.340605	-0.359542	-2.07838	0.0310257
1.3	0	0	0	0	0	0	0	0	0	243.038	967.249	-29.5623	0.574687	0	-0.338983	-0.63969	-2.54585	0.0778096
1.31	0	0	0	0	0	0	0	0	0	253.567	789.047	-36.7098	0.532784	0	-0.337862	-0.697948	-2.17187	0.101045
1.32	0	0	0	0	0	0	0	0	0	220.221	580.385	-41.8776	0.492177	0	-0.33723	-0.17159	-0.452222	0.03263
1.33	0	0	0	0	0	0	0	0	0	161.686	372.869	-45.5822	0.442349	0	-0.335438	1.24468	2.8704	-0.350897
